Coordinates
version=1
nRows=10
nColumns=34
inDegrees=yes

Units are S.I. units (second, meters, Newtons, ...)
If the header above contains a line with 'inDegrees', this indicates whether rotational values are in degrees (yes) or radians (no).

endheader
time	pelvis_tilt	pelvis_list	pelvis_rotation	pelvis_tx	pelvis_ty	pelvis_tz	hip_flexion_r	hip_adduction_r	hip_rotation_r	knee_angle_r	ankle_angle_r	subtalar_angle_r	mtp_angle_r	hip_flexion_l	hip_adduction_l	hip_rotation_l	knee_angle_l	ankle_angle_l	subtalar_angle_l	mtp_angle_l	lumbar_extension	lumbar_bending	lumbar_rotation	arm_flex_r	arm_add_r	arm_rot_r	elbow_flex_r	pro_sup_r	arm_flex_l	arm_add_l	arm_rot_l	elbow_flex_l	pro_sup_l
      5.23333330	      9.10460268	     -6.68489255	      8.76462117	      0.21846332	      0.72490419	     -0.06912043	     48.15018300	     -2.09642084	     -6.56342543	     17.10522014	    -20.22022104	    -14.26570765	      0.00000000	     29.63537915	     10.96994139	     16.87171131	     67.13308948	     17.40617768	    -35.00000000	      0.00000000	    -45.12563731	      1.64701495	      2.61146313	     96.14986320	      0.60528149	     74.41006103	    109.10890934	     93.11944352	    101.58209079	      3.78224018	     84.92731389	    118.87251022	     79.00922555
      5.25000000	      8.87538027	     -6.62168014	      8.84771390	      0.21575574	      0.72345641	     -0.06738340	     48.19560577	     -1.94114555	     -6.79077627	     16.18856568	    -20.40619070	    -14.02307708	      0.00000000	     30.64552777	     10.96762428	     16.75976228	     67.66169197	     16.96292978	    -35.00000000	      0.00000000	    -45.78536318	      1.27334643	      2.57218154	     96.37895355	      0.67084646	     74.19016814	    108.96661564	     93.04591893	    101.86353419	      3.51438971	     84.97992816	    118.56349297	     79.03677417
      5.26666670	      8.61429360	     -6.72741458	      8.86692713	      0.21705270	      0.72343021	     -0.06695396	     48.07074108	     -1.58462155	     -7.13231339	     15.41052938	    -20.50398104	    -13.54909056	      0.00000000	     31.22287573	     10.76878544	     16.85296392	     67.77363193	     16.22614992	    -35.00000000	      0.00000000	    -46.36110567	      1.10446394	      2.70550743	     96.18768223	      1.11112692	     74.24511674	    109.03594629	     92.93638572	    101.97459822	      3.40871495	     85.32167616	    118.16285085	     79.09215536
      5.28333330	      8.11566724	     -6.86214382	      8.89713850	      0.21509481	      0.72030268	     -0.06496956	     48.07638654	     -1.30921153	     -7.65457717	     14.52309307	    -20.88399647	    -12.92802948	      0.00000000	     32.28073068	     10.57631053	     16.89589239	     67.94830996	     16.19522804	    -35.00000000	      0.00000000	    -46.81292367	      0.95996133	      3.08659019	     96.46356491	      1.16957635	     74.20756032	    108.85663474	     92.81149596	    102.45193789	      3.38445123	     85.46112978	    118.00606096	     79.14627440
      5.30000000	      7.65311993	     -7.51540464	      8.85483578	      0.21462804	      0.71895354	     -0.06558772	     48.39636326	     -0.67883659	     -8.12293700	     14.20141987	    -20.93281666	    -12.48674875	      0.00000000	     33.39959276	     10.06649219	     17.11129255	     68.47308375	     16.47378300	    -35.00000000	      0.00000000	    -47.17967399	      1.41957430	      3.96382825	     96.91505681	      1.26167414	     74.72872930	    109.38144979	     92.65600808	    102.79572161	      3.46341137	     85.70879593	    118.03161575	     79.25025590
      5.31666670	      7.26539424	     -8.06918158	      8.75250457	      0.21198468	      0.71903733	     -0.06377816	     48.68967645	      0.06214505	     -8.39967675	     14.05675174	    -21.16607300	    -12.23062272	      0.00000000	     34.63184966	      9.38103179	     16.91646767	     69.30777935	     16.22884897	    -35.00000000	      0.00000000	    -47.64911073	      1.63445788	      4.54141596	     97.33025571	      1.33942171	     74.84834668	    109.38462500	     92.54606368	    103.45821686	      3.69140230	     85.74462720	    117.88324113	     79.30442445
      5.33333330	      6.90409252	     -8.80322681	      8.73012590	      0.21236312	      0.71589146	     -0.06276217	     49.47369462	      0.84716299	     -8.33020115	     15.36014955	    -20.99586070	    -12.73030915	      0.00000000	     35.69264456	      8.76264452	     17.23352961	     69.87667886	     16.27974676	    -35.00000000	      0.00000000	    -47.88677817	      2.12769571	      5.22013836	     97.82764834	      1.22314097	     76.01611905	    110.55766759	     92.33247789	    103.95062977	      4.05881387	     86.24441646	    117.96659808	     79.47854580
      5.35000000	      6.94204454	     -9.10672306	      8.76315590	      0.21333929	      0.71498268	     -0.06357754	     49.76442532	      1.34305135	     -8.16180908	     17.03988174	    -20.24929243	    -13.56980616	      0.00000000	     35.95904878	      8.54123781	     17.38139817	     70.26070964	     16.23850064	    -34.99860242	      0.00000000	    -48.36147749	      2.45541923	      5.87985411	     98.07928510	      1.24133706	     76.19947165	    110.39105505	     92.22251313	    104.30364291	      4.25101866	     86.25060374	    117.85281552	     79.53935787
      5.36666670	      6.72075742	     -9.29307904	      8.83733262	      0.20955814	      0.71272337	     -0.06066148	     50.81879621	      1.71702023	     -7.85565275	     19.04006620	    -20.42431097	    -14.72939797	      0.00000000	     36.98975797	      8.43126909	     17.23934463	     71.12415525	     16.39521167	    -34.95985579	      0.00000000	    -48.80849352	      2.63815635	      6.30973415	     98.89766508	      1.23767666	     77.02092224	    110.70935551	     91.88529419	    105.18775312	      4.30553277	     86.24024519	    117.81725540	     79.70455197
      5.38333330	      6.66578552	     -9.51106723	      8.97642651	      0.20917273	      0.71361105	     -0.06131724	     51.65104101	      2.04937743	     -7.16893136	     20.73256600	    -19.65897252	    -15.09100112	      0.00000000	     37.47781337	      8.31858432	     17.06523204	     71.49891299	     16.63624402	    -35.00000000	      0.00000000	    -49.37856574	      2.99321108	      6.23785570	     99.35540955	      1.93038685	     78.00181394	    112.05526874	     91.68502912	    106.00910287	      3.80284888	     86.37990665	    117.79410168	     79.85488199
